<svg width="1121" height="846" viewBox="0 0 1121 846" fill="none" xmlns="http://www.w3.org/2000/svg">
<circle cx="1065.64" cy="616.359" r="47.6415" fill="#FC19BD" fill-opacity="0.93"/>
<circle cx="1065.64" cy="610.641" r="47.6415" fill="#EF00AD"/>
<path d="M1086.53 597.77L1068.97 630.906H1060.33L1050.11 606.071L1043.45 602.229V598.388L1058.61 592.625L1061.22 602.984L1068.7 621.233L1077 605.042L1067.19 598.388L1069.38 593.928H1086.53V597.77Z" fill="#F3F3FC"/>
<path d="M1077.73 573.295C1078.24 574.517 1060.77 573.388 1048.91 578.319C1037.05 583.25 1027.98 596.54 1027.47 595.319C1026.97 594.098 1035.65 579.34 1047.51 574.409C1059.37 569.478 1077.22 572.074 1077.73 573.295Z" fill="#F93FCA"/>
<circle cx="37.5" cy="516" r="37.5" fill="#ADEF00" fill-opacity="0.65"/>
<circle cx="37.5" cy="511.5" r="37.5" fill="#ADEF00"/>
<path d="M53.9458 501.418L40.1218 527.5H33.3178L25.2718 507.952L20.0338 504.928V501.904L31.9678 497.368L34.0198 505.522L39.9058 519.886L46.4398 507.142L38.7178 501.904L40.4458 498.394H53.9458V501.418Z" fill="white"/>
<path d="M47.014 482.104C47.4137 483.065 33.6664 482.176 24.3309 486.058C14.9954 489.939 7.8568 500.4 7.4571 499.439C7.0574 498.478 13.8961 486.862 23.2315 482.98C32.567 479.099 46.6143 481.142 47.014 482.104Z" fill="#CAF064" fill-opacity="0.94"/>
<circle cx="344.377" cy="39.6228" r="35.3772" fill="#F33535"/>
<circle cx="344.377" cy="35.3772" r="35.3772" fill="#F46666"/>
<path d="M359.892 25.8095L346.85 50.415H340.432L332.841 31.9736L327.899 29.1208V26.268L339.158 21.9887L341.094 29.6812L346.647 43.2321L352.811 31.2095L345.526 26.268L347.156 22.9567H359.892V25.8095Z" fill="#F3F3FC"/>
<path d="M353.352 7.64477C353.73 8.55169 340.76 7.71318 331.953 11.3749C323.146 15.0367 316.412 24.9058 316.035 23.9989C315.658 23.0919 322.109 12.1334 330.916 8.47166C339.723 4.80991 352.975 6.73785 353.352 7.64477Z" fill="#F85353"/>
<circle cx="558.811" cy="801.189" r="44.8111" fill="#35BEF3"/>
<circle cx="558.811" cy="795.811" r="44.8111" fill="#66CDF4"/>
<path d="M573.488 805.296C573.488 806.736 572.832 808.288 571.52 809.952C570.24 811.616 568.608 813.088 566.624 814.368C564.672 815.648 562.784 816.464 560.96 816.816V825.6H556.784V816.912C554.544 816.752 552.208 816.464 549.776 816.048C547.376 815.632 545.6 815.2 544.448 814.752V804.24H548.96C550.368 806.832 552 808.848 553.856 810.288C555.712 811.728 557.584 812.448 559.472 812.448C560.944 812.448 562.128 812.032 563.024 811.2C563.92 810.336 564.368 809.296 564.368 808.08C564.368 807.12 563.984 806.208 563.216 805.344C562.48 804.48 561.536 803.68 560.384 802.944C559.232 802.208 557.696 801.312 555.776 800.256C553.408 798.944 551.472 797.792 549.968 796.8C548.496 795.808 547.248 794.656 546.224 793.344C545.2 792.032 544.688 790.592 544.688 789.024C544.688 787.552 545.312 785.968 546.56 784.272C547.808 782.576 549.376 781.088 551.264 779.808C553.184 778.528 555.024 777.728 556.784 777.408V768.624H560.96V777.408C563.04 777.568 565.136 777.856 567.248 778.272C569.392 778.688 570.976 779.12 572 779.568V790.08H567.488C566.144 787.488 564.656 785.472 563.024 784.032C561.424 782.592 559.728 781.872 557.936 781.872C556.656 781.872 555.648 782.288 554.912 783.12C554.176 783.92 553.808 784.944 553.808 786.192C553.808 787.216 554.192 788.192 554.96 789.12C555.76 790.016 556.736 790.848 557.888 791.616C559.072 792.352 560.656 793.264 562.64 794.352C564.976 795.632 566.864 796.752 568.304 797.712C569.744 798.672 570.96 799.792 571.952 801.072C572.944 802.352 573.44 803.76 573.44 805.296H573.488Z" fill="#F3F3FC"/>
<path d="M570.18 760.684C570.657 761.832 554.23 760.77 543.074 765.408C531.919 770.047 523.388 782.548 522.911 781.399C522.433 780.25 530.605 766.369 541.761 761.731C552.916 757.093 569.702 759.535 570.18 760.684Z" fill="#35BEF3"/>
<circle cx="1083.5" cy="160" r="37.5" fill="#0AFFAA"/>
<circle cx="1083.5" cy="155.5" r="37.5" fill="#00F29E"/>
<path d="M1095.24 163.08C1095.24 164.28 1094.69 165.573 1093.6 166.96C1092.53 168.347 1091.17 169.573 1089.52 170.64C1087.89 171.707 1086.32 172.387 1084.8 172.68V180H1081.32V172.76C1079.45 172.627 1077.51 172.387 1075.48 172.04C1073.48 171.693 1072 171.333 1071.04 170.96V162.2H1074.8C1075.97 164.36 1077.33 166.04 1078.88 167.24C1080.43 168.44 1081.99 169.04 1083.56 169.04C1084.79 169.04 1085.77 168.693 1086.52 168C1087.27 167.28 1087.64 166.413 1087.64 165.4C1087.64 164.6 1087.32 163.84 1086.68 163.12C1086.07 162.4 1085.28 161.733 1084.32 161.12C1083.36 160.507 1082.08 159.76 1080.48 158.88C1078.51 157.787 1076.89 156.827 1075.64 156C1074.41 155.173 1073.37 154.213 1072.52 153.12C1071.67 152.027 1071.24 150.827 1071.24 149.52C1071.24 148.293 1071.76 146.973 1072.8 145.56C1073.84 144.147 1075.15 142.907 1076.72 141.84C1078.32 140.773 1079.85 140.107 1081.32 139.84V132.52H1084.8V139.84C1086.53 139.973 1088.28 140.213 1090.04 140.56C1091.83 140.907 1093.15 141.267 1094 141.64V150.4H1090.24C1089.12 148.24 1087.88 146.56 1086.52 145.36C1085.19 144.16 1083.77 143.56 1082.28 143.56C1081.21 143.56 1080.37 143.907 1079.76 144.6C1079.15 145.267 1078.84 146.12 1078.84 147.16C1078.84 148.013 1079.16 148.827 1079.8 149.6C1080.47 150.347 1081.28 151.04 1082.24 151.68C1083.23 152.293 1084.55 153.053 1086.2 153.96C1088.15 155.027 1089.72 155.96 1090.92 156.76C1092.12 157.56 1093.13 158.493 1093.96 159.56C1094.79 160.627 1095.2 161.8 1095.2 163.08H1095.24Z" fill="#003D28"/>
<path d="M1093.01 126.104C1093.41 127.065 1079.67 126.176 1070.33 130.058C1061 133.939 1053.86 144.4 1053.46 143.439C1053.06 142.478 1059.9 130.862 1069.23 126.98C1078.57 123.099 1092.61 125.142 1093.01 126.104Z" fill="#0AFFAA"/>
</svg>
