<svg width="720" height="840" viewBox="0 0 720 840" fill="none" xmlns="http://www.w3.org/2000/svg">
<rect width="720" height="840" fill="#57D1FF"/>
<rect x="84" y="695" width="574" height="92" rx="9" fill="#0D0E32"/>
<rect x="84" y="695" width="574" height="92" rx="9" stroke="#0D0E32" stroke-width="2"/>
<path d="M91.7188 151.656C88.6146 151.656 85.7292 151.271 83.0625 150.5C80.3958 149.729 77.8021 148.448 75.2812 146.656V136.188H81.375L82.375 142.969C83.4792 143.76 84.8333 144.396 86.4375 144.875C88.0625 145.354 89.8229 145.594 91.7188 145.594C93.5729 145.594 95.125 145.333 96.375 144.812C97.6458 144.271 98.6146 143.521 99.2812 142.562C99.9479 141.604 100.281 140.469 100.281 139.156C100.281 137.948 99.9896 136.875 99.4062 135.938C98.8229 135 97.8542 134.167 96.5 133.438C95.1458 132.688 93.3125 132 91 131.375C87.6042 130.458 84.7604 129.375 82.4688 128.125C80.1979 126.875 78.4792 125.375 77.3125 123.625C76.1667 121.875 75.5938 119.812 75.5938 117.438C75.5938 115 76.25 112.844 77.5625 110.969C78.8958 109.094 80.7396 107.615 83.0938 106.531C85.4479 105.448 88.1667 104.896 91.25 104.875C94.625 104.833 97.6042 105.271 100.188 106.188C102.792 107.104 104.99 108.302 106.781 109.781V119.562H100.812L99.6875 113.188C98.8333 112.583 97.7188 112.073 96.3438 111.656C94.9896 111.219 93.3854 111 91.5312 111C89.9479 111 88.5521 111.26 87.3438 111.781C86.1354 112.302 85.1875 113.042 84.5 114C83.8125 114.938 83.4688 116.062 83.4688 117.375C83.4688 118.521 83.7708 119.521 84.375 120.375C84.9792 121.229 85.9896 122.01 87.4062 122.719C88.8229 123.406 90.7396 124.104 93.1562 124.812C98.0938 126.125 101.833 127.938 104.375 130.25C106.917 132.562 108.188 135.51 108.188 139.094C108.188 141.615 107.5 143.823 106.125 145.719C104.771 147.594 102.854 149.052 100.375 150.094C97.9167 151.135 95.0312 151.656 91.7188 151.656ZM127.125 151.656C123.5 151.656 120.667 150.51 118.625 148.219C116.604 145.906 115.594 142.323 115.594 137.469V122.969L111.781 122.031V117.188H115.594H123.469V137.531C123.469 140.448 123.927 142.5 124.844 143.688C125.781 144.854 127.219 145.438 129.156 145.438C130.865 145.438 132.312 145.104 133.5 144.438C134.708 143.75 135.667 142.781 136.375 141.531V122.969L132.125 122.031V117.188H136.375H144.25V145.25L148.25 146.188V151H137.281L136.75 146.406C135.688 148.094 134.333 149.396 132.688 150.312C131.062 151.208 129.208 151.656 127.125 151.656ZM166.875 164.656C165.208 164.656 163.354 164.427 161.312 163.969C159.292 163.531 157.51 162.917 155.969 162.125L157.594 156.375C158.927 156.979 160.396 157.469 162 157.844C163.604 158.219 165.125 158.406 166.562 158.406C169.146 158.406 171.031 157.688 172.219 156.25C173.427 154.833 174.031 152.823 174.031 150.219V147.562C172.99 148.896 171.75 149.917 170.312 150.625C168.875 151.312 167.229 151.656 165.375 151.656C162.625 151.656 160.25 150.969 158.25 149.594C156.271 148.219 154.75 146.292 153.688 143.812C152.646 141.333 152.125 138.458 152.125 135.188V134.531C152.125 130.927 152.646 127.781 153.688 125.094C154.75 122.406 156.26 120.312 158.219 118.812C160.198 117.312 162.552 116.562 165.281 116.562C167.344 116.562 169.135 116.99 170.656 117.844C172.177 118.677 173.469 119.875 174.531 121.438L175.125 117.188H181.906V150.25C181.906 153.188 181.312 155.729 180.125 157.875C178.938 160.042 177.219 161.708 174.969 162.875C172.719 164.062 170.021 164.656 166.875 164.656ZM167.5 145.438C169.021 145.438 170.312 145.115 171.375 144.469C172.458 143.823 173.344 142.885 174.031 141.656V126.594C173.344 125.406 172.458 124.479 171.375 123.812C170.292 123.125 169.01 122.781 167.531 122.781C165.802 122.781 164.375 123.281 163.25 124.281C162.146 125.26 161.323 126.635 160.781 128.406C160.26 130.156 160 132.198 160 134.531V135.188C160 138.312 160.594 140.802 161.781 142.656C162.99 144.51 164.896 145.438 167.5 145.438ZM180.844 123.125L177.531 117.188H185.969V122.031L180.844 123.125ZM203.812 164.656C202.146 164.656 200.292 164.427 198.25 163.969C196.229 163.531 194.448 162.917 192.906 162.125L194.531 156.375C195.865 156.979 197.333 157.469 198.938 157.844C200.542 158.219 202.062 158.406 203.5 158.406C206.083 158.406 207.969 157.688 209.156 156.25C210.365 154.833 210.969 152.823 210.969 150.219V147.562C209.927 148.896 208.688 149.917 207.25 150.625C205.812 151.312 204.167 151.656 202.312 151.656C199.562 151.656 197.188 150.969 195.188 149.594C193.208 148.219 191.688 146.292 190.625 143.812C189.583 141.333 189.062 138.458 189.062 135.188V134.531C189.062 130.927 189.583 127.781 190.625 125.094C191.688 122.406 193.198 120.312 195.156 118.812C197.135 117.312 199.49 116.562 202.219 116.562C204.281 116.562 206.073 116.99 207.594 117.844C209.115 118.677 210.406 119.875 211.469 121.438L212.062 117.188H218.844V150.25C218.844 153.188 218.25 155.729 217.062 157.875C215.875 160.042 214.156 161.708 211.906 162.875C209.656 164.062 206.958 164.656 203.812 164.656ZM204.438 145.438C205.958 145.438 207.25 145.115 208.312 144.469C209.396 143.823 210.281 142.885 210.969 141.656V126.594C210.281 125.406 209.396 124.479 208.312 123.812C207.229 123.125 205.948 122.781 204.469 122.781C202.74 122.781 201.312 123.281 200.188 124.281C199.083 125.26 198.26 126.635 197.719 128.406C197.198 130.156 196.938 132.198 196.938 134.531V135.188C196.938 138.312 197.531 140.802 198.719 142.656C199.927 144.51 201.833 145.438 204.438 145.438ZM217.781 123.125L214.469 117.188H222.906V122.031L217.781 123.125ZM241.406 151.656C238.219 151.656 235.438 150.948 233.062 149.531C230.708 148.094 228.875 146.115 227.562 143.594C226.271 141.073 225.625 138.188 225.625 134.938V133.625C225.625 130.333 226.26 127.406 227.531 124.844C228.823 122.26 230.594 120.24 232.844 118.781C235.094 117.302 237.656 116.562 240.531 116.562C243.594 116.562 246.156 117.177 248.219 118.406C250.302 119.635 251.875 121.385 252.938 123.656C254 125.906 254.531 128.615 254.531 131.781V136.281H233.781L233.719 136.438C233.802 138.208 234.167 139.781 234.812 141.156C235.479 142.531 236.417 143.615 237.625 144.406C238.854 145.198 240.344 145.594 242.094 145.594C243.927 145.594 245.594 145.344 247.094 144.844C248.594 144.344 249.979 143.635 251.25 142.719L253.719 147.656C252.385 148.781 250.688 149.729 248.625 150.5C246.562 151.271 244.156 151.656 241.406 151.656ZM233.906 130.75H247V129.938C247 128.458 246.771 127.167 246.312 126.062C245.875 124.938 245.177 124.062 244.219 123.438C243.281 122.812 242.083 122.5 240.625 122.5C239.354 122.5 238.24 122.854 237.281 123.562C236.323 124.271 235.552 125.24 234.969 126.469C234.406 127.677 234.021 129.052 233.812 130.594L233.906 130.75ZM273.281 151.656C270.865 151.656 268.604 151.427 266.5 150.969C264.417 150.49 262.323 149.792 260.219 148.875L260.125 139.938H265.781L266.969 144.812C267.865 145.208 268.781 145.521 269.719 145.75C270.677 145.958 271.74 146.062 272.906 146.062C275.156 146.062 276.74 145.667 277.656 144.875C278.594 144.083 279.062 143.104 279.062 141.938C279.062 140.812 278.573 139.854 277.594 139.062C276.635 138.25 274.792 137.552 272.062 136.969C268.021 136.094 265.042 134.823 263.125 133.156C261.229 131.469 260.281 129.281 260.281 126.594C260.281 124.74 260.771 123.062 261.75 121.562C262.75 120.062 264.208 118.865 266.125 117.969C268.062 117.052 270.438 116.594 273.25 116.594C275.812 116.594 278.083 116.865 280.062 117.406C282.062 117.927 283.76 118.625 285.156 119.5L285.344 128.094H279.75L278.781 123.625C278.135 123.167 277.385 122.812 276.531 122.562C275.677 122.312 274.698 122.188 273.594 122.188C271.865 122.188 270.5 122.573 269.5 123.344C268.5 124.094 268 125.042 268 126.188C268 126.854 268.156 127.458 268.469 128C268.802 128.542 269.427 129.042 270.344 129.5C271.281 129.938 272.646 130.365 274.438 130.781C278.833 131.802 281.979 133.135 283.875 134.781C285.771 136.427 286.719 138.604 286.719 141.312C286.719 144.333 285.615 146.812 283.406 148.75C281.198 150.688 277.823 151.656 273.281 151.656ZM304.031 151.594C301.156 151.594 298.917 150.792 297.312 149.188C295.708 147.562 294.906 144.979 294.906 141.438V122.812H289.969V117.188H294.906V108.969H302.75V117.188H309.438V122.812H302.75V141.438C302.75 142.875 303.042 143.927 303.625 144.594C304.229 145.24 305.042 145.562 306.062 145.562C306.646 145.562 307.292 145.51 308 145.406C308.729 145.302 309.312 145.198 309.75 145.094L310.562 150.625C309.646 150.896 308.594 151.125 307.406 151.312C306.24 151.5 305.115 151.594 304.031 151.594ZM314.438 151V146.188L319.125 145.25V122.969L314.156 122.031V117.188H327V145.25L331.656 146.188V151H314.438ZM318.812 109.531V102.25H327V109.531H318.812ZM351 151.656C347.75 151.656 344.958 150.927 342.625 149.469C340.292 148.01 338.5 145.99 337.25 143.406C336 140.802 335.375 137.812 335.375 134.438V133.781C335.375 130.427 336 127.458 337.25 124.875C338.5 122.292 340.292 120.26 342.625 118.781C344.958 117.302 347.729 116.562 350.938 116.562C354.188 116.562 356.979 117.302 359.312 118.781C361.646 120.24 363.438 122.26 364.688 124.844C365.938 127.427 366.562 130.406 366.562 133.781V134.438C366.562 137.812 365.938 140.802 364.688 143.406C363.438 145.99 361.646 148.01 359.312 149.469C357 150.927 354.229 151.656 351 151.656ZM351 145.594C352.75 145.594 354.188 145.125 355.312 144.188C356.458 143.229 357.312 141.917 357.875 140.25C358.438 138.562 358.719 136.625 358.719 134.438V133.781C358.719 131.615 358.438 129.698 357.875 128.031C357.312 126.365 356.458 125.052 355.312 124.094C354.167 123.135 352.708 122.656 350.938 122.656C349.208 122.656 347.771 123.135 346.625 124.094C345.479 125.052 344.625 126.365 344.062 128.031C343.521 129.698 343.25 131.615 343.25 133.781V134.438C343.25 136.625 343.521 138.562 344.062 140.25C344.625 141.917 345.479 143.229 346.625 144.188C347.792 145.125 349.25 145.594 351 145.594ZM370.719 151V146.188L375.406 145.25V122.969L370.469 122.031V117.188H382.656L383.062 122.094C384.188 120.344 385.583 118.99 387.25 118.031C388.938 117.052 390.844 116.562 392.969 116.562C396.448 116.562 399.156 117.635 401.094 119.781C403.031 121.906 404 125.24 404 129.781V145.25L408.688 146.188V151H391.719V146.188L396.125 145.25V129.844C396.125 127.281 395.615 125.469 394.594 124.406C393.573 123.323 392.052 122.781 390.031 122.781C388.51 122.781 387.177 123.125 386.031 123.812C384.906 124.479 383.99 125.417 383.281 126.625V145.25L387.562 146.188V151H370.719ZM428 151V146.188L432.969 145.25V111.281L428 110.344V105.5H432.969H447.969C453.073 105.5 457.052 106.542 459.906 108.625C462.781 110.688 464.219 113.781 464.219 117.906C464.219 119.969 463.625 121.823 462.438 123.469C461.25 125.094 459.604 126.302 457.5 127.094C459.333 127.49 460.875 128.208 462.125 129.25C463.375 130.292 464.323 131.562 464.969 133.062C465.635 134.542 465.969 136.167 465.969 137.938C465.969 142.208 464.562 145.458 461.75 147.688C458.958 149.896 455.062 151 450.062 151H428ZM440.844 144.938H450.062C452.646 144.938 454.625 144.344 456 143.156C457.396 141.948 458.094 140.208 458.094 137.938C458.094 136.333 457.833 134.969 457.312 133.844C456.792 132.719 456 131.854 454.938 131.25C453.875 130.646 452.51 130.344 450.844 130.344H440.844V144.938ZM440.844 124.688H448.844C451.177 124.688 453.01 124.125 454.344 123C455.677 121.875 456.344 120.302 456.344 118.281C456.344 116.01 455.635 114.333 454.219 113.25C452.802 112.146 450.719 111.594 447.969 111.594H440.844V124.688ZM485.562 151.656C482.312 151.656 479.521 150.927 477.188 149.469C474.854 148.01 473.062 145.99 471.812 143.406C470.562 140.802 469.938 137.812 469.938 134.438V133.781C469.938 130.427 470.562 127.458 471.812 124.875C473.062 122.292 474.854 120.26 477.188 118.781C479.521 117.302 482.292 116.562 485.5 116.562C488.75 116.562 491.542 117.302 493.875 118.781C496.208 120.24 498 122.26 499.25 124.844C500.5 127.427 501.125 130.406 501.125 133.781V134.438C501.125 137.812 500.5 140.802 499.25 143.406C498 145.99 496.208 148.01 493.875 149.469C491.562 150.927 488.792 151.656 485.562 151.656ZM485.562 145.594C487.312 145.594 488.75 145.125 489.875 144.188C491.021 143.229 491.875 141.917 492.438 140.25C493 138.562 493.281 136.625 493.281 134.438V133.781C493.281 131.615 493 129.698 492.438 128.031C491.875 126.365 491.021 125.052 489.875 124.094C488.729 123.135 487.271 122.656 485.5 122.656C483.771 122.656 482.333 123.135 481.188 124.094C480.042 125.052 479.188 126.365 478.625 128.031C478.083 129.698 477.812 131.615 477.812 133.781V134.438C477.812 136.625 478.083 138.562 478.625 140.25C479.188 141.917 480.042 143.229 481.188 144.188C482.354 145.125 483.812 145.594 485.562 145.594ZM503.719 151V146.188L507.812 145.562L517.656 134L508.219 122.656L504.438 122.031V117.188H519.719V121.906L516.781 122.281L522.531 129.656L528.219 122.281L525 121.906V117.188H539.844V122.031L536.219 122.656L527.344 133.75L537.375 145.562L541.25 146.188V151H525.156V146.312L528.562 145.938L522.438 138.406L516.469 145.969L519.656 146.312V151H503.719Z" fill="#151751"/>
<path d="M73.4238 251V248.785L76.2891 248.293V228.131L73.4238 227.639V225.406H82.6172V227.639L79.752 228.131V236.973H91.9863V228.131L89.1211 227.639V225.406H91.9863H95.4492H98.3145V227.639L95.4492 228.131V248.293L98.3145 248.785V251H89.1211V248.785L91.9863 248.293V239.697H79.752V248.293L82.6172 248.785V251H73.4238ZM109.705 251.369C107.947 251.369 106.418 250.971 105.117 250.174C103.816 249.365 102.809 248.246 102.094 246.816C101.391 245.387 101.039 243.734 101.039 241.859V241.086C101.039 239.281 101.408 237.67 102.146 236.252C102.896 234.822 103.887 233.697 105.117 232.877C106.359 232.045 107.713 231.629 109.178 231.629C110.889 231.629 112.318 231.98 113.467 232.684C114.627 233.387 115.5 234.377 116.086 235.654C116.672 236.92 116.965 238.414 116.965 240.137V242.299H104.625L104.572 242.387C104.596 243.605 104.807 244.689 105.205 245.639C105.615 246.576 106.201 247.314 106.963 247.854C107.725 248.393 108.639 248.662 109.705 248.662C110.877 248.662 111.902 248.498 112.781 248.17C113.672 247.83 114.439 247.367 115.084 246.781L116.438 249.031C115.758 249.688 114.855 250.244 113.73 250.701C112.617 251.146 111.275 251.369 109.705 251.369ZM104.73 239.592H113.502V239.135C113.502 238.221 113.338 237.406 113.01 236.691C112.693 235.965 112.213 235.396 111.568 234.986C110.936 234.564 110.139 234.354 109.178 234.354C108.404 234.354 107.701 234.582 107.068 235.039C106.436 235.484 105.914 236.094 105.504 236.867C105.094 237.641 104.824 238.52 104.695 239.504L104.73 239.592ZM119.496 251V248.785L122.361 248.293V226.303L119.496 225.811V223.578H125.824V248.293L128.689 248.785V251H119.496ZM130.641 258.312V256.08L133.33 255.588V234.705L130.465 234.213V231.98H136.301L136.617 234.301C137.25 233.434 138.018 232.771 138.92 232.314C139.834 231.857 140.889 231.629 142.084 231.629C143.654 231.629 144.996 232.057 146.109 232.912C147.223 233.756 148.072 234.945 148.658 236.48C149.244 238.004 149.537 239.791 149.537 241.842V242.211C149.537 244.039 149.238 245.639 148.641 247.01C148.055 248.381 147.211 249.453 146.109 250.227C145.008 250.988 143.684 251.369 142.137 251.369C140.965 251.369 139.934 251.176 139.043 250.789C138.164 250.391 137.414 249.805 136.793 249.031V255.588L139.816 256.08V258.312H130.641ZM141.064 248.662C142.705 248.662 143.947 248.064 144.791 246.869C145.635 245.674 146.057 244.121 146.057 242.211V241.842C146.057 240.389 145.869 239.111 145.494 238.01C145.119 236.896 144.557 236.023 143.807 235.391C143.068 234.758 142.143 234.441 141.029 234.441C140.045 234.441 139.201 234.664 138.498 235.109C137.795 235.555 137.227 236.164 136.793 236.938V246.201C137.227 246.986 137.789 247.596 138.48 248.029C139.184 248.451 140.045 248.662 141.064 248.662ZM169.559 251.369C167.496 251.369 165.885 250.707 164.725 249.383C163.564 248.059 162.984 245.996 162.984 243.195V234.705L160.805 234.213V231.98H162.984H166.447V243.23C166.447 245.258 166.746 246.652 167.344 247.414C167.941 248.176 168.873 248.557 170.139 248.557C171.369 248.557 172.383 248.311 173.18 247.818C173.988 247.314 174.598 246.605 175.008 245.691V234.705L172.459 234.213V231.98H175.008H178.471V248.293L180.65 248.785V251H175.359L175.131 248.188C174.533 249.207 173.76 249.992 172.811 250.543C171.873 251.094 170.789 251.369 169.559 251.369ZM190.793 251.369C189.516 251.369 188.32 251.24 187.207 250.982C186.094 250.725 184.91 250.326 183.656 249.787L183.621 245.27H186.24L186.891 247.994C187.547 248.264 188.18 248.463 188.789 248.592C189.41 248.709 190.078 248.768 190.793 248.768C192.199 248.768 193.207 248.498 193.816 247.959C194.426 247.42 194.73 246.752 194.73 245.955C194.73 245.205 194.42 244.572 193.799 244.057C193.189 243.529 192.076 243.084 190.459 242.721C188.162 242.193 186.469 241.49 185.379 240.611C184.301 239.721 183.762 238.537 183.762 237.061C183.762 236.029 184.061 235.109 184.658 234.301C185.256 233.48 186.088 232.83 187.154 232.35C188.221 231.869 189.463 231.629 190.881 231.629C192.322 231.629 193.553 231.793 194.572 232.121C195.604 232.449 196.5 232.889 197.262 233.439L197.438 237.781H194.836L194.273 235.25C193.863 234.945 193.377 234.711 192.814 234.547C192.252 234.383 191.607 234.301 190.881 234.301C189.803 234.301 188.924 234.553 188.244 235.057C187.576 235.561 187.242 236.193 187.242 236.955C187.242 237.4 187.336 237.787 187.523 238.115C187.723 238.443 188.098 238.742 188.648 239.012C189.199 239.27 190.008 239.527 191.074 239.785C193.723 240.406 195.568 241.197 196.611 242.158C197.666 243.119 198.193 244.303 198.193 245.709C198.193 247.314 197.596 248.662 196.4 249.752C195.217 250.83 193.348 251.369 190.793 251.369ZM210.023 251V248.785L212.889 248.293V234.705L210.023 234.213V231.98H216L216.229 234.459C216.838 233.557 217.623 232.859 218.584 232.367C219.545 231.875 220.658 231.629 221.924 231.629C223.189 231.629 224.273 231.922 225.176 232.508C226.09 233.094 226.775 233.973 227.232 235.145C227.83 234.066 228.621 233.211 229.605 232.578C230.59 231.945 231.738 231.629 233.051 231.629C234.996 231.629 236.531 232.297 237.656 233.633C238.781 234.957 239.344 236.955 239.344 239.627V248.293L242.209 248.785V251H232.998V248.785L235.863 248.293V239.592C235.863 237.717 235.541 236.393 234.896 235.619C234.252 234.834 233.297 234.441 232.031 234.441C230.824 234.441 229.852 234.869 229.113 235.725C228.387 236.568 227.965 237.635 227.848 238.924V248.293L230.713 248.785V251H221.52V248.785L224.385 248.293V239.592C224.385 237.811 224.051 236.51 223.383 235.689C222.727 234.857 221.771 234.441 220.518 234.441C219.463 234.441 218.596 234.658 217.916 235.092C217.236 235.525 216.715 236.135 216.352 236.92V248.293L219.217 248.785V251H210.023ZM250.945 251.369C248.965 251.369 247.459 250.889 246.428 249.928C245.396 248.955 244.881 247.59 244.881 245.832C244.881 244.625 245.209 243.576 245.865 242.686C246.533 241.783 247.494 241.086 248.748 240.594C250.002 240.09 251.502 239.838 253.248 239.838H256.641V237.975C256.641 236.826 256.289 235.936 255.586 235.303C254.895 234.67 253.916 234.354 252.65 234.354C251.854 234.354 251.162 234.453 250.576 234.652C249.99 234.84 249.457 235.104 248.977 235.443L248.607 238.098H245.936V233.738C246.791 233.047 247.787 232.525 248.924 232.174C250.061 231.811 251.32 231.629 252.703 231.629C255.012 231.629 256.822 232.18 258.135 233.281C259.447 234.383 260.104 235.959 260.104 238.01V247.168C260.104 247.414 260.104 247.654 260.104 247.889C260.115 248.123 260.133 248.357 260.156 248.592L262.002 248.785V251H257.027C256.922 250.484 256.84 250.021 256.781 249.611C256.723 249.201 256.682 248.791 256.658 248.381C255.99 249.236 255.152 249.951 254.145 250.525C253.148 251.088 252.082 251.369 250.945 251.369ZM251.455 248.469C252.604 248.469 253.652 248.193 254.602 247.643C255.551 247.092 256.23 246.43 256.641 245.656V242.211H253.125C251.531 242.211 250.336 242.592 249.539 243.354C248.742 244.115 248.344 244.965 248.344 245.902C248.344 246.734 248.602 247.373 249.117 247.818C249.633 248.252 250.412 248.469 251.455 248.469ZM264.516 251V248.785L267.381 248.293V226.303L264.516 225.811V223.578H270.844V248.293L273.709 248.785V251H264.516ZM276.732 251V248.785L278.666 248.557L278.613 248.486L273.111 241.385L274.904 238.625L282.586 248.363L285.328 248.785V251H276.732ZM270.598 245.498L269.314 242.773L277.576 234.547L277.664 234.441L275.625 234.213V231.98H283.816V234.213L281.373 234.67L270.598 245.498ZM294.943 251.369C293.186 251.369 291.656 250.971 290.355 250.174C289.055 249.365 288.047 248.246 287.332 246.816C286.629 245.387 286.277 243.734 286.277 241.859V241.086C286.277 239.281 286.646 237.67 287.385 236.252C288.135 234.822 289.125 233.697 290.355 232.877C291.598 232.045 292.951 231.629 294.416 231.629C296.127 231.629 297.557 231.98 298.705 232.684C299.865 233.387 300.738 234.377 301.324 235.654C301.91 236.92 302.203 238.414 302.203 240.137V242.299H289.863L289.811 242.387C289.834 243.605 290.045 244.689 290.443 245.639C290.854 246.576 291.439 247.314 292.201 247.854C292.963 248.393 293.877 248.662 294.943 248.662C296.115 248.662 297.141 248.498 298.02 248.17C298.91 247.83 299.678 247.367 300.322 246.781L301.676 249.031C300.996 249.688 300.094 250.244 298.969 250.701C297.855 251.146 296.514 251.369 294.943 251.369ZM289.969 239.592H298.74V239.135C298.74 238.221 298.576 237.406 298.248 236.691C297.932 235.965 297.451 235.396 296.807 234.986C296.174 234.564 295.377 234.354 294.416 234.354C293.643 234.354 292.939 234.582 292.307 235.039C291.674 235.484 291.152 236.094 290.742 236.867C290.332 237.641 290.062 238.52 289.934 239.504L289.969 239.592ZM321.768 251L315 234.477L313.031 234.213V231.98H321.012V234.213L318.533 234.564L322.752 245.393L323.244 246.922H323.35L323.912 245.393L327.832 234.564L325.283 234.213V231.98H333.246V234.213L331.242 234.477L324.809 251H321.768ZM343.283 251.369C341.525 251.369 339.996 250.971 338.695 250.174C337.395 249.365 336.387 248.246 335.672 246.816C334.969 245.387 334.617 243.734 334.617 241.859V241.086C334.617 239.281 334.986 237.67 335.725 236.252C336.475 234.822 337.465 233.697 338.695 232.877C339.938 232.045 341.291 231.629 342.756 231.629C344.467 231.629 345.896 231.98 347.045 232.684C348.205 233.387 349.078 234.377 349.664 235.654C350.25 236.92 350.543 238.414 350.543 240.137V242.299H338.203L338.15 242.387C338.174 243.605 338.385 244.689 338.783 245.639C339.193 246.576 339.779 247.314 340.541 247.854C341.303 248.393 342.217 248.662 343.283 248.662C344.455 248.662 345.48 248.498 346.359 248.17C347.25 247.83 348.018 247.367 348.662 246.781L350.016 249.031C349.336 249.688 348.434 250.244 347.309 250.701C346.195 251.146 344.854 251.369 343.283 251.369ZM338.309 239.592H347.08V239.135C347.08 238.221 346.916 237.406 346.588 236.691C346.271 235.965 345.791 235.396 345.146 234.986C344.514 234.564 343.717 234.354 342.756 234.354C341.982 234.354 341.279 234.582 340.646 235.039C340.014 235.484 339.492 236.094 339.082 236.867C338.672 237.641 338.402 238.52 338.273 239.504L338.309 239.592ZM353.215 251V248.785L356.08 248.293V234.705L353.215 234.213V231.98H359.174L359.473 234.406L359.508 234.74C360.047 233.768 360.709 233.006 361.494 232.455C362.291 231.904 363.199 231.629 364.219 231.629C364.582 231.629 364.951 231.664 365.326 231.734C365.713 231.793 365.988 231.852 366.152 231.91L365.695 235.127L363.287 234.986C362.373 234.928 361.605 235.139 360.984 235.619C360.363 236.088 359.883 236.721 359.543 237.518V248.293L362.408 248.785V251H353.215ZM367.699 251V248.785L369.809 248.381L375.486 241.385L369.932 234.617L368.051 234.213V231.98H375.504V234.213L373.605 234.424L377.508 239.275L381.305 234.406L379.266 234.213V231.98H386.596V234.213L384.662 234.617L379.512 241.332L385.436 248.381L387.404 248.785V251H379.336V248.785L381.621 248.592L377.455 243.512L373.412 248.592L375.469 248.785V251H367.699ZM389.303 251V248.785L392.168 248.293V234.705L389.303 234.213V231.98H395.631V248.293L398.496 248.785V251H389.303ZM391.992 227.287V223.578H395.631V227.287H391.992ZM409.482 251.369C407.725 251.369 406.207 250.959 404.93 250.139C403.664 249.307 402.686 248.164 401.994 246.711C401.303 245.246 400.957 243.576 400.957 241.701V241.314C400.957 239.439 401.303 237.775 401.994 236.322C402.686 234.857 403.664 233.709 404.93 232.877C406.207 232.045 407.713 231.629 409.447 231.629C411.205 231.629 412.717 232.045 413.982 232.877C415.26 233.709 416.244 234.852 416.936 236.305C417.627 237.758 417.973 239.428 417.973 241.314V241.701C417.973 243.588 417.627 245.264 416.936 246.729C416.244 248.182 415.266 249.318 414 250.139C412.734 250.959 411.229 251.369 409.482 251.369ZM409.482 248.662C410.584 248.662 411.504 248.363 412.242 247.766C412.992 247.156 413.555 246.33 413.93 245.287C414.316 244.232 414.51 243.037 414.51 241.701V241.314C414.51 239.979 414.316 238.789 413.93 237.746C413.555 236.691 412.992 235.865 412.242 235.268C411.492 234.658 410.561 234.354 409.447 234.354C408.346 234.354 407.42 234.658 406.67 235.268C405.92 235.865 405.357 236.691 404.982 237.746C404.607 238.789 404.42 239.979 404.42 241.314V241.701C404.42 243.037 404.607 244.232 404.982 245.287C405.357 246.33 405.92 247.156 406.67 247.766C407.432 248.363 408.369 248.662 409.482 248.662ZM435.762 251.369C433.781 251.369 432.275 250.889 431.244 249.928C430.213 248.955 429.697 247.59 429.697 245.832C429.697 244.625 430.025 243.576 430.682 242.686C431.35 241.783 432.311 241.086 433.564 240.594C434.818 240.09 436.318 239.838 438.064 239.838H441.457V237.975C441.457 236.826 441.105 235.936 440.402 235.303C439.711 234.67 438.732 234.354 437.467 234.354C436.67 234.354 435.979 234.453 435.393 234.652C434.807 234.84 434.273 235.104 433.793 235.443L433.424 238.098H430.752V233.738C431.607 233.047 432.604 232.525 433.74 232.174C434.877 231.811 436.137 231.629 437.52 231.629C439.828 231.629 441.639 232.18 442.951 233.281C444.264 234.383 444.92 235.959 444.92 238.01V247.168C444.92 247.414 444.92 247.654 444.92 247.889C444.932 248.123 444.949 248.357 444.973 248.592L446.818 248.785V251H441.844C441.738 250.484 441.656 250.021 441.598 249.611C441.539 249.201 441.498 248.791 441.475 248.381C440.807 249.236 439.969 249.951 438.961 250.525C437.965 251.088 436.898 251.369 435.762 251.369ZM436.271 248.469C437.42 248.469 438.469 248.193 439.418 247.643C440.367 247.092 441.047 246.43 441.457 245.656V242.211H437.941C436.348 242.211 435.152 242.592 434.355 243.354C433.559 244.115 433.16 244.965 433.16 245.902C433.16 246.734 433.418 247.373 433.934 247.818C434.449 248.252 435.229 248.469 436.271 248.469ZM468.58 251.369C467.338 251.369 466.26 251.135 465.346 250.666C464.432 250.186 463.67 249.482 463.061 248.557L462.744 251H459.756V226.303L456.891 225.811V223.578H463.219V234.23C463.816 233.387 464.555 232.742 465.434 232.297C466.324 231.852 467.361 231.629 468.545 231.629C470.115 231.629 471.451 232.057 472.553 232.912C473.666 233.756 474.516 234.945 475.102 236.48C475.699 238.016 475.998 239.803 475.998 241.842V242.211C475.998 244.039 475.699 245.639 475.102 247.01C474.516 248.381 473.666 249.453 472.553 250.227C471.451 250.988 470.127 251.369 468.58 251.369ZM467.701 248.557C469.33 248.557 470.537 247.977 471.322 246.816C472.119 245.656 472.518 244.121 472.518 242.211V241.842C472.518 240.377 472.342 239.094 471.99 237.992C471.639 236.879 471.105 236.012 470.391 235.391C469.676 234.758 468.768 234.441 467.666 234.441C466.6 234.441 465.697 234.699 464.959 235.215C464.232 235.73 463.652 236.422 463.219 237.289V245.691C463.652 246.57 464.238 247.268 464.977 247.783C465.727 248.299 466.635 248.557 467.701 248.557ZM487.986 251.369C486.229 251.369 484.699 250.971 483.398 250.174C482.098 249.365 481.09 248.246 480.375 246.816C479.672 245.387 479.32 243.734 479.32 241.859V241.086C479.32 239.281 479.689 237.67 480.428 236.252C481.178 234.822 482.168 233.697 483.398 232.877C484.641 232.045 485.994 231.629 487.459 231.629C489.17 231.629 490.6 231.98 491.748 232.684C492.908 233.387 493.781 234.377 494.367 235.654C494.953 236.92 495.246 238.414 495.246 240.137V242.299H482.906L482.854 242.387C482.877 243.605 483.088 244.689 483.486 245.639C483.896 246.576 484.482 247.314 485.244 247.854C486.006 248.393 486.92 248.662 487.986 248.662C489.158 248.662 490.184 248.498 491.062 248.17C491.953 247.83 492.721 247.367 493.365 246.781L494.719 249.031C494.039 249.688 493.137 250.244 492.012 250.701C490.898 251.146 489.557 251.369 487.986 251.369ZM483.012 239.592H491.783V239.135C491.783 238.221 491.619 237.406 491.291 236.691C490.975 235.965 490.494 235.396 489.85 234.986C489.217 234.564 488.42 234.354 487.459 234.354C486.686 234.354 485.982 234.582 485.35 235.039C484.717 235.484 484.195 236.094 483.785 236.867C483.375 237.641 483.105 238.52 482.977 239.504L483.012 239.592ZM504.668 251.299C503.262 251.299 502.143 250.889 501.311 250.068C500.49 249.236 500.08 247.912 500.08 246.096V234.547H497.074V231.98H500.08V227.393H503.543V231.98H507.674V234.547H503.543V246.096C503.543 247.01 503.725 247.684 504.088 248.117C504.451 248.551 504.938 248.768 505.547 248.768C505.957 248.768 506.414 248.732 506.918 248.662C507.422 248.58 507.814 248.51 508.096 248.451L508.57 250.719C508.066 250.871 507.445 251.006 506.707 251.123C505.98 251.24 505.301 251.299 504.668 251.299ZM517.5 251.299C516.094 251.299 514.975 250.889 514.143 250.068C513.322 249.236 512.912 247.912 512.912 246.096V234.547H509.906V231.98H512.912V227.393H516.375V231.98H520.506V234.547H516.375V246.096C516.375 247.01 516.557 247.684 516.92 248.117C517.283 248.551 517.77 248.768 518.379 248.768C518.789 248.768 519.246 248.732 519.75 248.662C520.254 248.58 520.646 248.51 520.928 248.451L521.402 250.719C520.898 250.871 520.277 251.006 519.539 251.123C518.812 251.24 518.133 251.299 517.5 251.299ZM531.932 251.369C530.174 251.369 528.645 250.971 527.344 250.174C526.043 249.365 525.035 248.246 524.32 246.816C523.617 245.387 523.266 243.734 523.266 241.859V241.086C523.266 239.281 523.635 237.67 524.373 236.252C525.123 234.822 526.113 233.697 527.344 232.877C528.586 232.045 529.939 231.629 531.404 231.629C533.115 231.629 534.545 231.98 535.693 232.684C536.854 233.387 537.727 234.377 538.312 235.654C538.898 236.92 539.191 238.414 539.191 240.137V242.299H526.852L526.799 242.387C526.822 243.605 527.033 244.689 527.432 245.639C527.842 246.576 528.428 247.314 529.189 247.854C529.951 248.393 530.865 248.662 531.932 248.662C533.104 248.662 534.129 248.498 535.008 248.17C535.898 247.83 536.666 247.367 537.311 246.781L538.664 249.031C537.984 249.688 537.082 250.244 535.957 250.701C534.844 251.146 533.502 251.369 531.932 251.369ZM526.957 239.592H535.729V239.135C535.729 238.221 535.564 237.406 535.236 236.691C534.92 235.965 534.439 235.396 533.795 234.986C533.162 234.564 532.365 234.354 531.404 234.354C530.631 234.354 529.928 234.582 529.295 235.039C528.662 235.484 528.141 236.094 527.73 236.867C527.32 237.641 527.051 238.52 526.922 239.504L526.957 239.592ZM541.863 251V248.785L544.729 248.293V234.705L541.863 234.213V231.98H547.822L548.121 234.406L548.156 234.74C548.695 233.768 549.357 233.006 550.143 232.455C550.939 231.904 551.848 231.629 552.867 231.629C553.23 231.629 553.6 231.664 553.975 231.734C554.361 231.793 554.637 231.852 554.801 231.91L554.344 235.127L551.936 234.986C551.021 234.928 550.254 235.139 549.633 235.619C549.012 236.088 548.531 236.721 548.191 237.518V248.293L551.057 248.785V251H541.863ZM572.027 251.369C570.047 251.369 568.541 250.889 567.51 249.928C566.479 248.955 565.963 247.59 565.963 245.832C565.963 244.625 566.291 243.576 566.947 242.686C567.615 241.783 568.576 241.086 569.83 240.594C571.084 240.09 572.584 239.838 574.33 239.838H577.723V237.975C577.723 236.826 577.371 235.936 576.668 235.303C575.977 234.67 574.998 234.354 573.732 234.354C572.936 234.354 572.244 234.453 571.658 234.652C571.072 234.84 570.539 235.104 570.059 235.443L569.689 238.098H567.018V233.738C567.873 233.047 568.869 232.525 570.006 232.174C571.143 231.811 572.402 231.629 573.785 231.629C576.094 231.629 577.904 232.18 579.217 233.281C580.529 234.383 581.186 235.959 581.186 238.01V247.168C581.186 247.414 581.186 247.654 581.186 247.889C581.197 248.123 581.215 248.357 581.238 248.592L583.084 248.785V251H578.109C578.004 250.484 577.922 250.021 577.863 249.611C577.805 249.201 577.764 248.791 577.74 248.381C577.072 249.236 576.234 249.951 575.227 250.525C574.23 251.088 573.164 251.369 572.027 251.369ZM572.537 248.469C573.686 248.469 574.734 248.193 575.684 247.643C576.633 247.092 577.312 246.43 577.723 245.656V242.211H574.207C572.613 242.211 571.418 242.592 570.621 243.354C569.824 244.115 569.426 244.965 569.426 245.902C569.426 246.734 569.684 247.373 570.199 247.818C570.715 248.252 571.494 248.469 572.537 248.469ZM585.773 251V248.785L588.639 248.293V234.705L585.773 234.213V231.98H591.732L591.979 234.811C592.611 233.803 593.402 233.023 594.352 232.473C595.312 231.91 596.402 231.629 597.621 231.629C599.672 231.629 601.26 232.232 602.385 233.439C603.51 234.635 604.072 236.486 604.072 238.994V248.293L606.938 248.785V251H597.744V248.785L600.609 248.293V239.064C600.609 237.389 600.275 236.199 599.607 235.496C598.951 234.793 597.943 234.441 596.584 234.441C595.588 234.441 594.703 234.682 593.93 235.162C593.168 235.643 592.559 236.299 592.102 237.131V248.293L594.967 248.785V251H585.773ZM616.693 251.369C615.146 251.369 613.816 250.988 612.703 250.227C611.602 249.453 610.758 248.381 610.172 247.01C609.586 245.639 609.293 244.039 609.293 242.211V241.842C609.293 239.803 609.586 238.016 610.172 236.48C610.758 234.945 611.607 233.756 612.721 232.912C613.834 232.057 615.17 231.629 616.729 231.629C617.854 231.629 618.844 231.84 619.699 232.262C620.566 232.672 621.305 233.27 621.914 234.055V226.303L619.049 225.811V223.578H621.914H625.377V248.293L628.242 248.785V251H622.371L622.09 248.732C621.469 249.6 620.707 250.256 619.805 250.701C618.914 251.146 617.877 251.369 616.693 251.369ZM617.572 248.557C618.604 248.557 619.471 248.322 620.174 247.854C620.877 247.385 621.457 246.723 621.914 245.867V237.043C621.469 236.246 620.889 235.613 620.174 235.145C619.459 234.676 618.604 234.441 617.607 234.441C616.506 234.441 615.598 234.758 614.883 235.391C614.168 236.012 613.635 236.879 613.283 237.992C612.932 239.094 612.756 240.377 612.756 241.842V242.211C612.756 244.121 613.148 245.656 613.934 246.816C614.719 247.977 615.932 248.557 617.572 248.557ZM79.4531 299.369C77.4727 299.369 75.9668 298.889 74.9355 297.928C73.9043 296.955 73.3887 295.59 73.3887 293.832C73.3887 292.625 73.7168 291.576 74.373 290.686C75.041 289.783 76.002 289.086 77.2559 288.594C78.5098 288.09 80.0098 287.838 81.7559 287.838H85.1484V285.975C85.1484 284.826 84.7969 283.936 84.0938 283.303C83.4023 282.67 82.4238 282.354 81.1582 282.354C80.3613 282.354 79.6699 282.453 79.084 282.652C78.498 282.84 77.9648 283.104 77.4844 283.443L77.1152 286.098H74.4434V281.738C75.2988 281.047 76.2949 280.525 77.4316 280.174C78.5684 279.811 79.8281 279.629 81.2109 279.629C83.5195 279.629 85.3301 280.18 86.6426 281.281C87.9551 282.383 88.6113 283.959 88.6113 286.01V295.168C88.6113 295.414 88.6113 295.654 88.6113 295.889C88.623 296.123 88.6406 296.357 88.6641 296.592L90.5098 296.785V299H85.5352C85.4297 298.484 85.3477 298.021 85.2891 297.611C85.2305 297.201 85.1895 296.791 85.166 296.381C84.498 297.236 83.6602 297.951 82.6523 298.525C81.6562 299.088 80.5898 299.369 79.4531 299.369ZM79.9629 296.469C81.1113 296.469 82.1602 296.193 83.1094 295.643C84.0586 295.092 84.7383 294.43 85.1484 293.656V290.211H81.6328C80.0391 290.211 78.8438 290.592 78.0469 291.354C77.25 292.115 76.8516 292.965 76.8516 293.902C76.8516 294.734 77.1094 295.373 77.625 295.818C78.1406 296.252 78.9199 296.469 79.9629 296.469ZM102.164 299V296.785L105.029 296.293V282.705L102.164 282.213V279.98H108.141L108.369 282.459C108.979 281.557 109.764 280.859 110.725 280.367C111.686 279.875 112.799 279.629 114.064 279.629C115.33 279.629 116.414 279.922 117.316 280.508C118.23 281.094 118.916 281.973 119.373 283.145C119.971 282.066 120.762 281.211 121.746 280.578C122.73 279.945 123.879 279.629 125.191 279.629C127.137 279.629 128.672 280.297 129.797 281.633C130.922 282.957 131.484 284.955 131.484 287.627V296.293L134.35 296.785V299H125.139V296.785L128.004 296.293V287.592C128.004 285.717 127.682 284.393 127.037 283.619C126.393 282.834 125.438 282.441 124.172 282.441C122.965 282.441 121.992 282.869 121.254 283.725C120.527 284.568 120.105 285.635 119.988 286.924V296.293L122.854 296.785V299H113.66V296.785L116.525 296.293V287.592C116.525 285.811 116.191 284.51 115.523 283.689C114.867 282.857 113.912 282.441 112.658 282.441C111.604 282.441 110.736 282.658 110.057 283.092C109.377 283.525 108.855 284.135 108.492 284.92V296.293L111.357 296.785V299H102.164ZM145.248 299.369C143.49 299.369 141.973 298.959 140.695 298.139C139.43 297.307 138.451 296.164 137.76 294.711C137.068 293.246 136.723 291.576 136.723 289.701V289.314C136.723 287.439 137.068 285.775 137.76 284.322C138.451 282.857 139.43 281.709 140.695 280.877C141.973 280.045 143.479 279.629 145.213 279.629C146.971 279.629 148.482 280.045 149.748 280.877C151.025 281.709 152.01 282.852 152.701 284.305C153.393 285.758 153.738 287.428 153.738 289.314V289.701C153.738 291.588 153.393 293.264 152.701 294.729C152.01 296.182 151.031 297.318 149.766 298.139C148.5 298.959 146.994 299.369 145.248 299.369ZM145.248 296.662C146.35 296.662 147.27 296.363 148.008 295.766C148.758 295.156 149.32 294.33 149.695 293.287C150.082 292.232 150.275 291.037 150.275 289.701V289.314C150.275 287.979 150.082 286.789 149.695 285.746C149.32 284.691 148.758 283.865 148.008 283.268C147.258 282.658 146.326 282.354 145.213 282.354C144.111 282.354 143.186 282.658 142.436 283.268C141.686 283.865 141.123 284.691 140.748 285.746C140.373 286.789 140.186 287.979 140.186 289.314V289.701C140.186 291.037 140.373 292.232 140.748 293.287C141.123 294.33 141.686 295.156 142.436 295.766C143.197 296.363 144.135 296.662 145.248 296.662ZM156.375 299V296.785L159.24 296.293V282.705L156.375 282.213V279.98H162.334L162.633 282.406L162.668 282.74C163.207 281.768 163.869 281.006 164.654 280.455C165.451 279.904 166.359 279.629 167.379 279.629C167.742 279.629 168.111 279.664 168.486 279.734C168.873 279.793 169.148 279.852 169.312 279.91L168.855 283.127L166.447 282.986C165.533 282.928 164.766 283.139 164.145 283.619C163.523 284.088 163.043 284.721 162.703 285.518V296.293L165.568 296.785V299H156.375ZM179.736 299.369C177.979 299.369 176.449 298.971 175.148 298.174C173.848 297.365 172.84 296.246 172.125 294.816C171.422 293.387 171.07 291.734 171.07 289.859V289.086C171.07 287.281 171.439 285.67 172.178 284.252C172.928 282.822 173.918 281.697 175.148 280.877C176.391 280.045 177.744 279.629 179.209 279.629C180.92 279.629 182.35 279.98 183.498 280.684C184.658 281.387 185.531 282.377 186.117 283.654C186.703 284.92 186.996 286.414 186.996 288.137V290.299H174.656L174.604 290.387C174.627 291.605 174.838 292.689 175.236 293.639C175.646 294.576 176.232 295.314 176.994 295.854C177.756 296.393 178.67 296.662 179.736 296.662C180.908 296.662 181.934 296.498 182.812 296.17C183.703 295.83 184.471 295.367 185.115 294.781L186.469 297.031C185.789 297.688 184.887 298.244 183.762 298.701C182.648 299.146 181.307 299.369 179.736 299.369ZM174.762 287.592H183.533V287.135C183.533 286.221 183.369 285.406 183.041 284.691C182.725 283.965 182.244 283.396 181.6 282.986C180.967 282.564 180.17 282.354 179.209 282.354C178.436 282.354 177.732 282.582 177.1 283.039C176.467 283.484 175.945 284.094 175.535 284.867C175.125 285.641 174.855 286.52 174.727 287.504L174.762 287.592ZM207.334 299.369C205.576 299.369 204.047 298.971 202.746 298.174C201.445 297.365 200.438 296.246 199.723 294.816C199.02 293.387 198.668 291.734 198.668 289.859V289.086C198.668 287.281 199.037 285.67 199.775 284.252C200.525 282.822 201.516 281.697 202.746 280.877C203.988 280.045 205.342 279.629 206.807 279.629C208.518 279.629 209.947 279.98 211.096 280.684C212.256 281.387 213.129 282.377 213.715 283.654C214.301 284.92 214.594 286.414 214.594 288.137V290.299H202.254L202.201 290.387C202.225 291.605 202.436 292.689 202.834 293.639C203.244 294.576 203.83 295.314 204.592 295.854C205.354 296.393 206.268 296.662 207.334 296.662C208.506 296.662 209.531 296.498 210.41 296.17C211.301 295.83 212.068 295.367 212.713 294.781L214.066 297.031C213.387 297.688 212.484 298.244 211.359 298.701C210.246 299.146 208.904 299.369 207.334 299.369ZM202.359 287.592H211.131V287.135C211.131 286.221 210.967 285.406 210.639 284.691C210.322 283.965 209.842 283.396 209.197 282.986C208.564 282.564 207.768 282.354 206.807 282.354C206.033 282.354 205.33 282.582 204.697 283.039C204.064 283.484 203.543 284.094 203.133 284.867C202.723 285.641 202.453 286.52 202.324 287.504L202.359 287.592ZM217.301 299V296.785L220.166 296.293V282.705L217.301 282.213V279.98H223.26L223.506 282.811C224.139 281.803 224.93 281.023 225.879 280.473C226.84 279.91 227.93 279.629 229.148 279.629C231.199 279.629 232.787 280.232 233.912 281.439C235.037 282.635 235.6 284.486 235.6 286.994V296.293L238.465 296.785V299H229.271V296.785L232.137 296.293V287.064C232.137 285.389 231.803 284.199 231.135 283.496C230.479 282.793 229.471 282.441 228.111 282.441C227.115 282.441 226.23 282.682 225.457 283.162C224.695 283.643 224.086 284.299 223.629 285.131V296.293L226.494 296.785V299H217.301ZM249.1 306.682C248.186 306.682 247.195 306.553 246.129 306.295C245.062 306.049 244.125 305.709 243.316 305.275L244.213 302.586C244.857 302.926 245.619 303.207 246.498 303.43C247.377 303.652 248.232 303.764 249.064 303.764C250.611 303.764 251.742 303.33 252.457 302.463C253.184 301.596 253.547 300.359 253.547 298.754V296.943C252.926 297.74 252.182 298.344 251.314 298.754C250.447 299.164 249.451 299.369 248.326 299.369C246.779 299.369 245.443 298.988 244.318 298.227C243.193 297.453 242.326 296.381 241.717 295.01C241.119 293.627 240.82 292.027 240.82 290.211V289.842C240.82 287.803 241.119 286.016 241.717 284.48C242.326 282.945 243.193 281.756 244.318 280.912C245.443 280.057 246.791 279.629 248.361 279.629C249.557 279.629 250.605 279.863 251.508 280.332C252.41 280.801 253.166 281.48 253.775 282.371L254.092 279.98H257.01V298.754C257.01 300.395 256.699 301.807 256.078 302.99C255.469 304.174 254.572 305.082 253.389 305.715C252.217 306.359 250.787 306.682 249.1 306.682ZM249.188 296.557C250.23 296.557 251.104 296.322 251.807 295.854C252.51 295.373 253.09 294.699 253.547 293.832V285.078C253.102 284.27 252.521 283.631 251.807 283.162C251.092 282.682 250.23 282.441 249.223 282.441C248.121 282.441 247.201 282.758 246.463 283.391C245.736 284.023 245.191 284.896 244.828 286.01C244.465 287.111 244.283 288.389 244.283 289.842V290.211C244.283 292.121 244.688 293.656 245.496 294.816C246.305 295.977 247.535 296.557 249.188 296.557ZM256.482 282.811L255.129 279.98H259.365V282.195L256.482 282.811ZM267.258 299.369C265.277 299.369 263.771 298.889 262.74 297.928C261.709 296.955 261.193 295.59 261.193 293.832C261.193 292.625 261.521 291.576 262.178 290.686C262.846 289.783 263.807 289.086 265.061 288.594C266.314 288.09 267.814 287.838 269.561 287.838H272.953V285.975C272.953 284.826 272.602 283.936 271.898 283.303C271.207 282.67 270.229 282.354 268.963 282.354C268.166 282.354 267.475 282.453 266.889 282.652C266.303 282.84 265.77 283.104 265.289 283.443L264.92 286.098H262.248V281.738C263.104 281.047 264.1 280.525 265.236 280.174C266.373 279.811 267.633 279.629 269.016 279.629C271.324 279.629 273.135 280.18 274.447 281.281C275.76 282.383 276.416 283.959 276.416 286.01V295.168C276.416 295.414 276.416 295.654 276.416 295.889C276.428 296.123 276.445 296.357 276.469 296.592L278.314 296.785V299H273.34C273.234 298.484 273.152 298.021 273.094 297.611C273.035 297.201 272.994 296.791 272.971 296.381C272.303 297.236 271.465 297.951 270.457 298.525C269.461 299.088 268.395 299.369 267.258 299.369ZM267.768 296.469C268.916 296.469 269.965 296.193 270.914 295.643C271.863 295.092 272.543 294.43 272.953 293.656V290.211H269.438C267.844 290.211 266.648 290.592 265.852 291.354C265.055 292.115 264.656 292.965 264.656 293.902C264.656 294.734 264.914 295.373 265.43 295.818C265.945 296.252 266.725 296.469 267.768 296.469ZM289.354 306.682C288.439 306.682 287.449 306.553 286.383 306.295C285.316 306.049 284.379 305.709 283.57 305.275L284.467 302.586C285.111 302.926 285.873 303.207 286.752 303.43C287.631 303.652 288.486 303.764 289.318 303.764C290.865 303.764 291.996 303.33 292.711 302.463C293.438 301.596 293.801 300.359 293.801 298.754V296.943C293.18 297.74 292.436 298.344 291.568 298.754C290.701 299.164 289.705 299.369 288.58 299.369C287.033 299.369 285.697 298.988 284.572 298.227C283.447 297.453 282.58 296.381 281.971 295.01C281.373 293.627 281.074 292.027 281.074 290.211V289.842C281.074 287.803 281.373 286.016 281.971 284.48C282.58 282.945 283.447 281.756 284.572 280.912C285.697 280.057 287.045 279.629 288.615 279.629C289.811 279.629 290.859 279.863 291.762 280.332C292.664 280.801 293.42 281.48 294.029 282.371L294.346 279.98H297.264V298.754C297.264 300.395 296.953 301.807 296.332 302.99C295.723 304.174 294.826 305.082 293.643 305.715C292.471 306.359 291.041 306.682 289.354 306.682ZM289.441 296.557C290.484 296.557 291.357 296.322 292.061 295.854C292.764 295.373 293.344 294.699 293.801 293.832V285.078C293.355 284.27 292.775 283.631 292.061 283.162C291.346 282.682 290.484 282.441 289.477 282.441C288.375 282.441 287.455 282.758 286.717 283.391C285.99 284.023 285.445 284.896 285.082 286.01C284.719 287.111 284.537 288.389 284.537 289.842V290.211C284.537 292.121 284.941 293.656 285.75 294.816C286.559 295.977 287.789 296.557 289.441 296.557ZM296.736 282.811L295.383 279.98H299.619V282.195L296.736 282.811ZM301.236 299V296.785L304.102 296.293V282.705L301.236 282.213V279.98H307.564V296.293L310.43 296.785V299H301.236ZM303.926 275.287V271.578H307.564V275.287H303.926ZM312.82 299V296.785L315.686 296.293V282.705L312.82 282.213V279.98H318.779L319.025 282.811C319.658 281.803 320.449 281.023 321.398 280.473C322.359 279.91 323.449 279.629 324.668 279.629C326.719 279.629 328.307 280.232 329.432 281.439C330.557 282.635 331.119 284.486 331.119 286.994V296.293L333.984 296.785V299H324.791V296.785L327.656 296.293V287.064C327.656 285.389 327.322 284.199 326.654 283.496C325.998 282.793 324.99 282.441 323.631 282.441C322.635 282.441 321.75 282.682 320.977 283.162C320.215 283.643 319.605 284.299 319.148 285.131V296.293L322.014 296.785V299H312.82ZM344.619 306.682C343.705 306.682 342.715 306.553 341.648 306.295C340.582 306.049 339.645 305.709 338.836 305.275L339.732 302.586C340.377 302.926 341.139 303.207 342.018 303.43C342.896 303.652 343.752 303.764 344.584 303.764C346.131 303.764 347.262 303.33 347.977 302.463C348.703 301.596 349.066 300.359 349.066 298.754V296.943C348.445 297.74 347.701 298.344 346.834 298.754C345.967 299.164 344.971 299.369 343.846 299.369C342.299 299.369 340.963 298.988 339.838 298.227C338.713 297.453 337.846 296.381 337.236 295.01C336.639 293.627 336.34 292.027 336.34 290.211V289.842C336.34 287.803 336.639 286.016 337.236 284.48C337.846 282.945 338.713 281.756 339.838 280.912C340.963 280.057 342.311 279.629 343.881 279.629C345.076 279.629 346.125 279.863 347.027 280.332C347.93 280.801 348.686 281.48 349.295 282.371L349.611 279.98H352.529V298.754C352.529 300.395 352.219 301.807 351.598 302.99C350.988 304.174 350.092 305.082 348.908 305.715C347.736 306.359 346.307 306.682 344.619 306.682ZM344.707 296.557C345.75 296.557 346.623 296.322 347.326 295.854C348.029 295.373 348.609 294.699 349.066 293.832V285.078C348.621 284.27 348.041 283.631 347.326 283.162C346.611 282.682 345.75 282.441 344.742 282.441C343.641 282.441 342.721 282.758 341.982 283.391C341.256 284.023 340.711 284.896 340.348 286.01C339.984 287.111 339.803 288.389 339.803 289.842V290.211C339.803 292.121 340.207 293.656 341.016 294.816C341.824 295.977 343.055 296.557 344.707 296.557ZM352.002 282.811L350.648 279.98H354.885V282.195L352.002 282.811ZM365.062 306.312V304.08L367.752 303.588V282.705L364.887 282.213V279.98H370.723L371.039 282.301C371.672 281.434 372.439 280.771 373.342 280.314C374.256 279.857 375.311 279.629 376.506 279.629C378.076 279.629 379.418 280.057 380.531 280.912C381.645 281.756 382.494 282.945 383.08 284.48C383.666 286.004 383.959 287.791 383.959 289.842V290.211C383.959 292.039 383.66 293.639 383.062 295.01C382.477 296.381 381.633 297.453 380.531 298.227C379.43 298.988 378.105 299.369 376.559 299.369C375.387 299.369 374.355 299.176 373.465 298.789C372.586 298.391 371.836 297.805 371.215 297.031V303.588L374.238 304.08V306.312H365.062ZM375.486 296.662C377.127 296.662 378.369 296.064 379.213 294.869C380.057 293.674 380.479 292.121 380.479 290.211V289.842C380.479 288.389 380.291 287.111 379.916 286.01C379.541 284.896 378.979 284.023 378.229 283.391C377.49 282.758 376.564 282.441 375.451 282.441C374.467 282.441 373.623 282.664 372.92 283.109C372.217 283.555 371.648 284.164 371.215 284.938V294.201C371.648 294.986 372.211 295.596 372.902 296.029C373.605 296.451 374.467 296.662 375.486 296.662ZM386.297 299V296.785L389.162 296.293V274.303L386.297 273.811V271.578H392.625V296.293L395.49 296.785V299H386.297ZM404.121 299.369C402.141 299.369 400.635 298.889 399.604 297.928C398.572 296.955 398.057 295.59 398.057 293.832C398.057 292.625 398.385 291.576 399.041 290.686C399.709 289.783 400.67 289.086 401.924 288.594C403.178 288.09 404.678 287.838 406.424 287.838H409.816V285.975C409.816 284.826 409.465 283.936 408.762 283.303C408.07 282.67 407.092 282.354 405.826 282.354C405.029 282.354 404.338 282.453 403.752 282.652C403.166 282.84 402.633 283.104 402.152 283.443L401.783 286.098H399.111V281.738C399.967 281.047 400.963 280.525 402.1 280.174C403.236 279.811 404.496 279.629 405.879 279.629C408.188 279.629 409.998 280.18 411.311 281.281C412.623 282.383 413.279 283.959 413.279 286.01V295.168C413.279 295.414 413.279 295.654 413.279 295.889C413.291 296.123 413.309 296.357 413.332 296.592L415.178 296.785V299H410.203C410.098 298.484 410.016 298.021 409.957 297.611C409.898 297.201 409.857 296.791 409.834 296.381C409.166 297.236 408.328 297.951 407.32 298.525C406.324 299.088 405.258 299.369 404.121 299.369ZM404.631 296.469C405.779 296.469 406.828 296.193 407.777 295.643C408.727 295.092 409.406 294.43 409.816 293.656V290.211H406.301C404.707 290.211 403.512 290.592 402.715 291.354C401.918 292.115 401.52 292.965 401.52 293.902C401.52 294.734 401.777 295.373 402.293 295.818C402.809 296.252 403.588 296.469 404.631 296.469ZM424.582 299.299C423.176 299.299 422.057 298.889 421.225 298.068C420.404 297.236 419.994 295.912 419.994 294.096V282.547H416.988V279.98H419.994V275.393H423.457V279.98H427.588V282.547H423.457V294.096C423.457 295.01 423.639 295.684 424.002 296.117C424.365 296.551 424.852 296.768 425.461 296.768C425.871 296.768 426.328 296.732 426.832 296.662C427.336 296.58 427.729 296.51 428.01 296.451L428.484 298.719C427.98 298.871 427.359 299.006 426.621 299.123C425.895 299.24 425.215 299.299 424.582 299.299ZM430.629 299V296.785L433.494 296.293V282.547H430.523V279.98H433.494V277.572C433.494 275.545 434.021 273.98 435.076 272.879C436.143 271.766 437.625 271.209 439.523 271.209C439.922 271.209 440.35 271.244 440.807 271.314C441.275 271.373 441.756 271.461 442.248 271.578L441.826 274.215C441.615 274.168 441.328 274.127 440.965 274.092C440.613 274.057 440.279 274.039 439.963 274.039C438.943 274.039 438.188 274.344 437.695 274.953C437.203 275.551 436.957 276.424 436.957 277.572V279.98H441.105V282.547H436.957V296.293L440.227 296.785V299H430.629ZM451.881 299.369C450.123 299.369 448.605 298.959 447.328 298.139C446.062 297.307 445.084 296.164 444.393 294.711C443.701 293.246 443.355 291.576 443.355 289.701V289.314C443.355 287.439 443.701 285.775 444.393 284.322C445.084 282.857 446.062 281.709 447.328 280.877C448.605 280.045 450.111 279.629 451.846 279.629C453.604 279.629 455.115 280.045 456.381 280.877C457.658 281.709 458.643 282.852 459.334 284.305C460.025 285.758 460.371 287.428 460.371 289.314V289.701C460.371 291.588 460.025 293.264 459.334 294.729C458.643 296.182 457.664 297.318 456.398 298.139C455.133 298.959 453.627 299.369 451.881 299.369ZM451.881 296.662C452.982 296.662 453.902 296.363 454.641 295.766C455.391 295.156 455.953 294.33 456.328 293.287C456.715 292.232 456.908 291.037 456.908 289.701V289.314C456.908 287.979 456.715 286.789 456.328 285.746C455.953 284.691 455.391 283.865 454.641 283.268C453.891 282.658 452.959 282.354 451.846 282.354C450.744 282.354 449.818 282.658 449.068 283.268C448.318 283.865 447.756 284.691 447.381 285.746C447.006 286.789 446.818 287.979 446.818 289.314V289.701C446.818 291.037 447.006 292.232 447.381 293.287C447.756 294.33 448.318 295.156 449.068 295.766C449.83 296.363 450.768 296.662 451.881 296.662ZM463.008 299V296.785L465.873 296.293V282.705L463.008 282.213V279.98H468.967L469.266 282.406L469.301 282.74C469.84 281.768 470.502 281.006 471.287 280.455C472.084 279.904 472.992 279.629 474.012 279.629C474.375 279.629 474.744 279.664 475.119 279.734C475.506 279.793 475.781 279.852 475.945 279.91L475.488 283.127L473.08 282.986C472.166 282.928 471.398 283.139 470.777 283.619C470.156 284.088 469.676 284.721 469.336 285.518V296.293L472.201 296.785V299H463.008ZM478.055 299V296.785L480.92 296.293V282.705L478.055 282.213V279.98H484.031L484.26 282.459C484.869 281.557 485.654 280.859 486.615 280.367C487.576 279.875 488.689 279.629 489.955 279.629C491.221 279.629 492.305 279.922 493.207 280.508C494.121 281.094 494.807 281.973 495.264 283.145C495.861 282.066 496.652 281.211 497.637 280.578C498.621 279.945 499.77 279.629 501.082 279.629C503.027 279.629 504.562 280.297 505.688 281.633C506.812 282.957 507.375 284.955 507.375 287.627V296.293L510.24 296.785V299H501.029V296.785L503.895 296.293V287.592C503.895 285.717 503.572 284.393 502.928 283.619C502.283 282.834 501.328 282.441 500.062 282.441C498.855 282.441 497.883 282.869 497.145 283.725C496.418 284.568 495.996 285.635 495.879 286.924V296.293L498.744 296.785V299H489.551V296.785L492.416 296.293V287.592C492.416 285.811 492.082 284.51 491.414 283.689C490.758 282.857 489.803 282.441 488.549 282.441C487.494 282.441 486.627 282.658 485.947 283.092C485.268 283.525 484.746 284.135 484.383 284.92V296.293L487.248 296.785V299H478.055Z" fill="#151751"/>
<rect x="73" y="681" width="574" height="95" rx="9" fill="#F3F3FC"/>
<rect x="73" y="681" width="574" height="95" rx="9" stroke="#0D0E32" stroke-width="2"/>
<path d="M120.508 737V735.523L122.418 735.195V730.789L117.168 721.648L115.762 721.426V719.938H121.645V721.426L119.699 721.648L123.32 728.352L123.566 728.809L123.578 728.785L123.812 728.352L127.609 721.648L125.594 721.426V719.938H131.359V721.426L129.871 721.648L124.715 730.613V735.195L126.625 735.523V737H120.508ZM137.09 737.246C135.918 737.246 134.906 736.973 134.055 736.426C133.211 735.871 132.559 735.109 132.098 734.141C131.637 733.164 131.406 732.051 131.406 730.801V730.543C131.406 729.293 131.637 728.184 132.098 727.215C132.559 726.238 133.211 725.473 134.055 724.918C134.906 724.363 135.91 724.086 137.066 724.086C138.238 724.086 139.246 724.363 140.09 724.918C140.941 725.473 141.598 726.234 142.059 727.203C142.52 728.172 142.75 729.285 142.75 730.543V730.801C142.75 732.059 142.52 733.176 142.059 734.152C141.598 735.121 140.945 735.879 140.102 736.426C139.258 736.973 138.254 737.246 137.09 737.246ZM137.09 735.441C137.824 735.441 138.438 735.242 138.93 734.844C139.43 734.438 139.805 733.887 140.055 733.191C140.312 732.488 140.441 731.691 140.441 730.801V730.543C140.441 729.652 140.312 728.859 140.055 728.164C139.805 727.461 139.43 726.91 138.93 726.512C138.43 726.105 137.809 725.902 137.066 725.902C136.332 725.902 135.715 726.105 135.215 726.512C134.715 726.91 134.34 727.461 134.09 728.164C133.84 728.859 133.715 729.652 133.715 730.543V730.801C133.715 731.691 133.84 732.488 134.09 733.191C134.34 733.887 134.715 734.438 135.215 734.844C135.723 735.242 136.348 735.441 137.09 735.441ZM150.109 737.246C148.734 737.246 147.66 736.805 146.887 735.922C146.113 735.039 145.727 733.664 145.727 731.797V726.137L144.273 725.809V724.32H145.727H148.035V731.82C148.035 733.172 148.234 734.102 148.633 734.609C149.031 735.117 149.652 735.371 150.496 735.371C151.316 735.371 151.992 735.207 152.523 734.879C153.062 734.543 153.469 734.07 153.742 733.461V726.137L152.043 725.809V724.32H153.742H156.051V735.195L157.504 735.523V737H153.977L153.824 735.125C153.426 735.805 152.91 736.328 152.277 736.695C151.652 737.062 150.93 737.246 150.109 737.246ZM164.816 737V735.523L166.727 735.195V720.535L164.816 720.207V718.719H169.035V726.008C169.473 725.398 170.008 724.926 170.641 724.59C171.273 724.254 171.977 724.086 172.75 724.086C174.109 724.086 175.164 724.492 175.914 725.305C176.664 726.117 177.039 727.367 177.039 729.055V735.195L178.949 735.523V737H172.82V735.523L174.73 735.195V729.031C174.73 727.984 174.504 727.211 174.051 726.711C173.605 726.211 172.938 725.961 172.047 725.961C171.414 725.961 170.836 726.113 170.312 726.418C169.797 726.715 169.371 727.121 169.035 727.637V735.195L170.945 735.523V737H164.816ZM184.633 737.246C183.312 737.246 182.309 736.926 181.621 736.285C180.934 735.637 180.59 734.727 180.59 733.555C180.59 732.75 180.809 732.051 181.246 731.457C181.691 730.855 182.332 730.391 183.168 730.062C184.004 729.727 185.004 729.559 186.168 729.559H188.43V728.316C188.43 727.551 188.195 726.957 187.727 726.535C187.266 726.113 186.613 725.902 185.77 725.902C185.238 725.902 184.777 725.969 184.387 726.102C183.996 726.227 183.641 726.402 183.32 726.629L183.074 728.398H181.293V725.492C181.863 725.031 182.527 724.684 183.285 724.449C184.043 724.207 184.883 724.086 185.805 724.086C187.344 724.086 188.551 724.453 189.426 725.188C190.301 725.922 190.738 726.973 190.738 728.34V734.445C190.738 734.609 190.738 734.77 190.738 734.926C190.746 735.082 190.758 735.238 190.773 735.395L192.004 735.523V737H188.688C188.617 736.656 188.562 736.348 188.523 736.074C188.484 735.801 188.457 735.527 188.441 735.254C187.996 735.824 187.438 736.301 186.766 736.684C186.102 737.059 185.391 737.246 184.633 737.246ZM184.973 735.312C185.738 735.312 186.438 735.129 187.07 734.762C187.703 734.395 188.156 733.953 188.43 733.438V731.141H186.086C185.023 731.141 184.227 731.395 183.695 731.902C183.164 732.41 182.898 732.977 182.898 733.602C182.898 734.156 183.07 734.582 183.414 734.879C183.758 735.168 184.277 735.312 184.973 735.312ZM198.871 737L194.359 725.984L193.047 725.809V724.32H198.367V725.809L196.715 726.043L199.527 733.262L199.855 734.281H199.926L200.301 733.262L202.914 726.043L201.215 725.809V724.32H206.523V725.809L205.188 725.984L200.898 737H198.871ZM213.215 737.246C212.043 737.246 211.023 736.98 210.156 736.449C209.289 735.91 208.617 735.164 208.141 734.211C207.672 733.258 207.438 732.156 207.438 730.906V730.391C207.438 729.188 207.684 728.113 208.176 727.168C208.676 726.215 209.336 725.465 210.156 724.918C210.984 724.363 211.887 724.086 212.863 724.086C214.004 724.086 214.957 724.32 215.723 724.789C216.496 725.258 217.078 725.918 217.469 726.77C217.859 727.613 218.055 728.609 218.055 729.758V731.199H209.828L209.793 731.258C209.809 732.07 209.949 732.793 210.215 733.426C210.488 734.051 210.879 734.543 211.387 734.902C211.895 735.262 212.504 735.441 213.215 735.441C213.996 735.441 214.68 735.332 215.266 735.113C215.859 734.887 216.371 734.578 216.801 734.188L217.703 735.688C217.25 736.125 216.648 736.496 215.898 736.801C215.156 737.098 214.262 737.246 213.215 737.246ZM209.898 729.395H215.746V729.09C215.746 728.48 215.637 727.938 215.418 727.461C215.207 726.977 214.887 726.598 214.457 726.324C214.035 726.043 213.504 725.902 212.863 725.902C212.348 725.902 211.879 726.055 211.457 726.359C211.035 726.656 210.688 727.062 210.414 727.578C210.141 728.094 209.961 728.68 209.875 729.336L209.898 729.395ZM230.969 737.246C230.117 737.246 229.32 737.16 228.578 736.988C227.836 736.816 227.047 736.551 226.211 736.191L226.188 733.18H227.934L228.367 734.996C228.805 735.176 229.227 735.309 229.633 735.395C230.047 735.473 230.492 735.512 230.969 735.512C231.906 735.512 232.578 735.332 232.984 734.973C233.391 734.613 233.594 734.168 233.594 733.637C233.594 733.137 233.387 732.715 232.973 732.371C232.566 732.02 231.824 731.723 230.746 731.48C229.215 731.129 228.086 730.66 227.359 730.074C226.641 729.48 226.281 728.691 226.281 727.707C226.281 727.02 226.48 726.406 226.879 725.867C227.277 725.32 227.832 724.887 228.543 724.566C229.254 724.246 230.082 724.086 231.027 724.086C231.988 724.086 232.809 724.195 233.488 724.414C234.176 724.633 234.773 724.926 235.281 725.293L235.398 728.188H233.664L233.289 726.5C233.016 726.297 232.691 726.141 232.316 726.031C231.941 725.922 231.512 725.867 231.027 725.867C230.309 725.867 229.723 726.035 229.27 726.371C228.824 726.707 228.602 727.129 228.602 727.637C228.602 727.934 228.664 728.191 228.789 728.41C228.922 728.629 229.172 728.828 229.539 729.008C229.906 729.18 230.445 729.352 231.156 729.523C232.922 729.938 234.152 730.465 234.848 731.105C235.551 731.746 235.902 732.535 235.902 733.473C235.902 734.543 235.504 735.441 234.707 736.168C233.918 736.887 232.672 737.246 230.969 737.246ZM243.543 737.246C242.371 737.246 241.359 736.973 240.508 736.426C239.664 735.871 239.012 735.109 238.551 734.141C238.09 733.164 237.859 732.051 237.859 730.801V730.543C237.859 729.293 238.09 728.184 238.551 727.215C239.012 726.238 239.664 725.473 240.508 724.918C241.359 724.363 242.363 724.086 243.52 724.086C244.691 724.086 245.699 724.363 246.543 724.918C247.395 725.473 248.051 726.234 248.512 727.203C248.973 728.172 249.203 729.285 249.203 730.543V730.801C249.203 732.059 248.973 733.176 248.512 734.152C248.051 735.121 247.398 735.879 246.555 736.426C245.711 736.973 244.707 737.246 243.543 737.246ZM243.543 735.441C244.277 735.441 244.891 735.242 245.383 734.844C245.883 734.438 246.258 733.887 246.508 733.191C246.766 732.488 246.895 731.691 246.895 730.801V730.543C246.895 729.652 246.766 728.859 246.508 728.164C246.258 727.461 245.883 726.91 245.383 726.512C244.883 726.105 244.262 725.902 243.52 725.902C242.785 725.902 242.168 726.105 241.668 726.512C241.168 726.91 240.793 727.461 240.543 728.164C240.293 728.859 240.168 729.652 240.168 730.543V730.801C240.168 731.691 240.293 732.488 240.543 733.191C240.793 733.887 241.168 734.438 241.668 734.844C242.176 735.242 242.801 735.441 243.543 735.441ZM250.984 737V735.523L252.895 735.195V726.137L250.984 725.809V724.32H254.969L255.121 725.973C255.527 725.371 256.051 724.906 256.691 724.578C257.332 724.25 258.074 724.086 258.918 724.086C259.762 724.086 260.484 724.281 261.086 724.672C261.695 725.062 262.152 725.648 262.457 726.43C262.855 725.711 263.383 725.141 264.039 724.719C264.695 724.297 265.461 724.086 266.336 724.086C267.633 724.086 268.656 724.531 269.406 725.422C270.156 726.305 270.531 727.637 270.531 729.418V735.195L272.441 735.523V737H266.301V735.523L268.211 735.195V729.395C268.211 728.145 267.996 727.262 267.566 726.746C267.137 726.223 266.5 725.961 265.656 725.961C264.852 725.961 264.203 726.246 263.711 726.816C263.227 727.379 262.945 728.09 262.867 728.949V735.195L264.777 735.523V737H258.648V735.523L260.559 735.195V729.395C260.559 728.207 260.336 727.34 259.891 726.793C259.453 726.238 258.816 725.961 257.98 725.961C257.277 725.961 256.699 726.105 256.246 726.395C255.793 726.684 255.445 727.09 255.203 727.613V735.195L257.113 735.523V737H250.984ZM279.754 737.246C278.582 737.246 277.562 736.98 276.695 736.449C275.828 735.91 275.156 735.164 274.68 734.211C274.211 733.258 273.977 732.156 273.977 730.906V730.391C273.977 729.188 274.223 728.113 274.715 727.168C275.215 726.215 275.875 725.465 276.695 724.918C277.523 724.363 278.426 724.086 279.402 724.086C280.543 724.086 281.496 724.32 282.262 724.789C283.035 725.258 283.617 725.918 284.008 726.77C284.398 727.613 284.594 728.609 284.594 729.758V731.199H276.367L276.332 731.258C276.348 732.07 276.488 732.793 276.754 733.426C277.027 734.051 277.418 734.543 277.926 734.902C278.434 735.262 279.043 735.441 279.754 735.441C280.535 735.441 281.219 735.332 281.805 735.113C282.398 734.887 282.91 734.578 283.34 734.188L284.242 735.688C283.789 736.125 283.188 736.496 282.438 736.801C281.695 737.098 280.801 737.246 279.754 737.246ZM276.438 729.395H282.285V729.09C282.285 728.48 282.176 727.938 281.957 727.461C281.746 726.977 281.426 726.598 280.996 726.324C280.574 726.043 280.043 725.902 279.402 725.902C278.887 725.902 278.418 726.055 277.996 726.359C277.574 726.656 277.227 727.062 276.953 727.578C276.68 728.094 276.5 728.68 276.414 729.336L276.438 729.395ZM290.875 737.199C289.938 737.199 289.191 736.926 288.637 736.379C288.09 735.824 287.816 734.941 287.816 733.73V726.031H285.812V724.32H287.816V721.262H290.125V724.32H292.879V726.031H290.125V733.73C290.125 734.34 290.246 734.789 290.488 735.078C290.73 735.367 291.055 735.512 291.461 735.512C291.734 735.512 292.039 735.488 292.375 735.441C292.711 735.387 292.973 735.34 293.16 735.301L293.477 736.812C293.141 736.914 292.727 737.004 292.234 737.082C291.75 737.16 291.297 737.199 290.875 737.199ZM294.66 737V735.523L296.57 735.195V720.535L294.66 720.207V718.719H298.879V726.008C299.316 725.398 299.852 724.926 300.484 724.59C301.117 724.254 301.82 724.086 302.594 724.086C303.953 724.086 305.008 724.492 305.758 725.305C306.508 726.117 306.883 727.367 306.883 729.055V735.195L308.793 735.523V737H302.664V735.523L304.574 735.195V729.031C304.574 727.984 304.348 727.211 303.895 726.711C303.449 726.211 302.781 725.961 301.891 725.961C301.258 725.961 300.68 726.113 300.156 726.418C299.641 726.715 299.215 727.121 298.879 727.637V735.195L300.789 735.523V737H294.66ZM310.293 737V735.523L312.203 735.195V726.137L310.293 725.809V724.32H314.512V735.195L316.422 735.523V737H310.293ZM312.086 721.191V718.719H314.512V721.191H312.086ZM318.016 737V735.523L319.926 735.195V726.137L318.016 725.809V724.32H321.988L322.152 726.207C322.574 725.535 323.102 725.016 323.734 724.648C324.375 724.273 325.102 724.086 325.914 724.086C327.281 724.086 328.34 724.488 329.09 725.293C329.84 726.09 330.215 727.324 330.215 728.996V735.195L332.125 735.523V737H325.996V735.523L327.906 735.195V729.043C327.906 727.926 327.684 727.133 327.238 726.664C326.801 726.195 326.129 725.961 325.223 725.961C324.559 725.961 323.969 726.121 323.453 726.441C322.945 726.762 322.539 727.199 322.234 727.754V735.195L324.145 735.523V737H318.016ZM339.215 742.121C338.605 742.121 337.945 742.035 337.234 741.863C336.523 741.699 335.898 741.473 335.359 741.184L335.957 739.391C336.387 739.617 336.895 739.805 337.48 739.953C338.066 740.102 338.637 740.176 339.191 740.176C340.223 740.176 340.977 739.887 341.453 739.309C341.938 738.73 342.18 737.906 342.18 736.836V735.629C341.766 736.16 341.27 736.562 340.691 736.836C340.113 737.109 339.449 737.246 338.699 737.246C337.668 737.246 336.777 736.992 336.027 736.484C335.277 735.969 334.699 735.254 334.293 734.34C333.895 733.418 333.695 732.352 333.695 731.141V730.895C333.695 729.535 333.895 728.344 334.293 727.32C334.699 726.297 335.277 725.504 336.027 724.941C336.777 724.371 337.676 724.086 338.723 724.086C339.52 724.086 340.219 724.242 340.82 724.555C341.422 724.867 341.926 725.32 342.332 725.914L342.543 724.32H344.488V736.836C344.488 737.93 344.281 738.871 343.867 739.66C343.461 740.449 342.863 741.055 342.074 741.477C341.293 741.906 340.34 742.121 339.215 742.121ZM339.273 735.371C339.969 735.371 340.551 735.215 341.02 734.902C341.488 734.582 341.875 734.133 342.18 733.555V727.719C341.883 727.18 341.496 726.754 341.02 726.441C340.543 726.121 339.969 725.961 339.297 725.961C338.562 725.961 337.949 726.172 337.457 726.594C336.973 727.016 336.609 727.598 336.367 728.34C336.125 729.074 336.004 729.926 336.004 730.895V731.141C336.004 732.414 336.273 733.438 336.812 734.211C337.352 734.984 338.172 735.371 339.273 735.371ZM344.137 726.207L343.234 724.32H346.059V725.797L344.137 726.207ZM358.926 737.246C357.754 737.246 356.742 736.973 355.891 736.426C355.047 735.871 354.395 735.109 353.934 734.141C353.473 733.164 353.242 732.051 353.242 730.801V730.543C353.242 729.293 353.473 728.184 353.934 727.215C354.395 726.238 355.047 725.473 355.891 724.918C356.742 724.363 357.746 724.086 358.902 724.086C360.074 724.086 361.082 724.363 361.926 724.918C362.777 725.473 363.434 726.234 363.895 727.203C364.355 728.172 364.586 729.285 364.586 730.543V730.801C364.586 732.059 364.355 733.176 363.895 734.152C363.434 735.121 362.781 735.879 361.938 736.426C361.094 736.973 360.09 737.246 358.926 737.246ZM358.926 735.441C359.66 735.441 360.273 735.242 360.766 734.844C361.266 734.438 361.641 733.887 361.891 733.191C362.148 732.488 362.277 731.691 362.277 730.801V730.543C362.277 729.652 362.148 728.859 361.891 728.164C361.641 727.461 361.266 726.91 360.766 726.512C360.266 726.105 359.645 725.902 358.902 725.902C358.168 725.902 357.551 726.105 357.051 726.512C356.551 726.91 356.176 727.461 355.926 728.164C355.676 728.859 355.551 729.652 355.551 730.543V730.801C355.551 731.691 355.676 732.488 355.926 733.191C356.176 733.887 356.551 734.438 357.051 734.844C357.559 735.242 358.184 735.441 358.926 735.441ZM366.367 737V735.523L368.277 735.195V726.137L366.367 725.809V724.32H370.34L370.504 726.207C370.926 725.535 371.453 725.016 372.086 724.648C372.727 724.273 373.453 724.086 374.266 724.086C375.633 724.086 376.691 724.488 377.441 725.293C378.191 726.09 378.566 727.324 378.566 728.996V735.195L380.477 735.523V737H374.348V735.523L376.258 735.195V729.043C376.258 727.926 376.035 727.133 375.59 726.664C375.152 726.195 374.48 725.961 373.574 725.961C372.91 725.961 372.32 726.121 371.805 726.441C371.297 726.762 370.891 727.199 370.586 727.754V735.195L372.496 735.523V737H366.367ZM390.848 742.121C390.668 742.121 390.434 742.098 390.145 742.051C389.855 742.012 389.633 741.973 389.477 741.934L389.711 740.117C389.844 740.133 390.027 740.145 390.262 740.152C390.496 740.168 390.656 740.176 390.742 740.176C391.234 740.176 391.633 739.988 391.938 739.613C392.25 739.238 392.539 738.727 392.805 738.078L393.355 736.742L388.867 725.996L387.508 725.809V724.32H392.828V725.809L391.293 726.043L393.766 732.383L394.363 734.035H394.434L397.363 726.043L395.746 725.809V724.32H400.961V725.809L399.648 725.996L394.656 738.945C394.422 739.555 394.137 740.098 393.801 740.574C393.473 741.059 393.066 741.438 392.582 741.711C392.105 741.984 391.527 742.121 390.848 742.121ZM407.488 737.246C406.316 737.246 405.305 736.973 404.453 736.426C403.609 735.871 402.957 735.109 402.496 734.141C402.035 733.164 401.805 732.051 401.805 730.801V730.543C401.805 729.293 402.035 728.184 402.496 727.215C402.957 726.238 403.609 725.473 404.453 724.918C405.305 724.363 406.309 724.086 407.465 724.086C408.637 724.086 409.645 724.363 410.488 724.918C411.34 725.473 411.996 726.234 412.457 727.203C412.918 728.172 413.148 729.285 413.148 730.543V730.801C413.148 732.059 412.918 733.176 412.457 734.152C411.996 735.121 411.344 735.879 410.5 736.426C409.656 736.973 408.652 737.246 407.488 737.246ZM407.488 735.441C408.223 735.441 408.836 735.242 409.328 734.844C409.828 734.438 410.203 733.887 410.453 733.191C410.711 732.488 410.84 731.691 410.84 730.801V730.543C410.84 729.652 410.711 728.859 410.453 728.164C410.203 727.461 409.828 726.91 409.328 726.512C408.828 726.105 408.207 725.902 407.465 725.902C406.73 725.902 406.113 726.105 405.613 726.512C405.113 726.91 404.738 727.461 404.488 728.164C404.238 728.859 404.113 729.652 404.113 730.543V730.801C404.113 731.691 404.238 732.488 404.488 733.191C404.738 733.887 405.113 734.438 405.613 734.844C406.121 735.242 406.746 735.441 407.488 735.441ZM420.508 737.246C419.133 737.246 418.059 736.805 417.285 735.922C416.512 735.039 416.125 733.664 416.125 731.797V726.137L414.672 725.809V724.32H416.125H418.434V731.82C418.434 733.172 418.633 734.102 419.031 734.609C419.43 735.117 420.051 735.371 420.895 735.371C421.715 735.371 422.391 735.207 422.922 734.879C423.461 734.543 423.867 734.07 424.141 733.461V726.137L422.441 725.809V724.32H424.141H426.449V735.195L427.902 735.523V737H424.375L424.223 735.125C423.824 735.805 423.309 736.328 422.676 736.695C422.051 737.062 421.328 737.246 420.508 737.246ZM429.508 737V735.523L431.418 735.195V726.137L429.508 725.809V724.32H433.48L433.68 725.938L433.703 726.16C434.062 725.512 434.504 725.004 435.027 724.637C435.559 724.27 436.164 724.086 436.844 724.086C437.086 724.086 437.332 724.109 437.582 724.156C437.84 724.195 438.023 724.234 438.133 724.273L437.828 726.418L436.223 726.324C435.613 726.285 435.102 726.426 434.688 726.746C434.273 727.059 433.953 727.48 433.727 728.012V735.195L435.637 735.523V737H429.508ZM445.516 737V735.523L447.426 735.195V726.137L445.516 725.809V724.32H449.5L449.652 725.973C450.059 725.371 450.582 724.906 451.223 724.578C451.863 724.25 452.605 724.086 453.449 724.086C454.293 724.086 455.016 724.281 455.617 724.672C456.227 725.062 456.684 725.648 456.988 726.43C457.387 725.711 457.914 725.141 458.57 724.719C459.227 724.297 459.992 724.086 460.867 724.086C462.164 724.086 463.188 724.531 463.938 725.422C464.688 726.305 465.062 727.637 465.062 729.418V735.195L466.973 735.523V737H460.832V735.523L462.742 735.195V729.395C462.742 728.145 462.527 727.262 462.098 726.746C461.668 726.223 461.031 725.961 460.188 725.961C459.383 725.961 458.734 726.246 458.242 726.816C457.758 727.379 457.477 728.09 457.398 728.949V735.195L459.309 735.523V737H453.18V735.523L455.09 735.195V729.395C455.09 728.207 454.867 727.34 454.422 726.793C453.984 726.238 453.348 725.961 452.512 725.961C451.809 725.961 451.23 726.105 450.777 726.395C450.324 726.684 449.977 727.09 449.734 727.613V735.195L451.645 735.523V737H445.516ZM468.613 737V735.523L470.523 735.195V726.137L468.613 725.809V724.32H472.832V735.195L474.742 735.523V737H468.613ZM470.406 721.191V718.719H472.832V721.191H470.406ZM476.336 737V735.523L478.246 735.195V726.137L476.336 725.809V724.32H480.309L480.473 726.207C480.895 725.535 481.422 725.016 482.055 724.648C482.695 724.273 483.422 724.086 484.234 724.086C485.602 724.086 486.66 724.488 487.41 725.293C488.16 726.09 488.535 727.324 488.535 728.996V735.195L490.445 735.523V737H484.316V735.523L486.227 735.195V729.043C486.227 727.926 486.004 727.133 485.559 726.664C485.121 726.195 484.449 725.961 483.543 725.961C482.879 725.961 482.289 726.121 481.773 726.441C481.266 726.762 480.859 727.199 480.555 727.754V735.195L482.465 735.523V737H476.336ZM496.949 737.246C495.918 737.246 495.031 736.992 494.289 736.484C493.555 735.969 492.992 735.254 492.602 734.34C492.211 733.426 492.016 732.359 492.016 731.141V730.895C492.016 729.535 492.211 728.344 492.602 727.32C492.992 726.297 493.559 725.504 494.301 724.941C495.043 724.371 495.934 724.086 496.973 724.086C497.723 724.086 498.383 724.227 498.953 724.508C499.531 724.781 500.023 725.18 500.43 725.703V720.535L498.52 720.207V718.719H500.43H502.738V735.195L504.648 735.523V737H500.734L500.547 735.488C500.133 736.066 499.625 736.504 499.023 736.801C498.43 737.098 497.738 737.246 496.949 737.246ZM497.535 735.371C498.223 735.371 498.801 735.215 499.27 734.902C499.738 734.59 500.125 734.148 500.43 733.578V727.695C500.133 727.164 499.746 726.742 499.27 726.43C498.793 726.117 498.223 725.961 497.559 725.961C496.824 725.961 496.219 726.172 495.742 726.594C495.266 727.008 494.91 727.586 494.676 728.328C494.441 729.062 494.324 729.918 494.324 730.895V731.141C494.324 732.414 494.586 733.438 495.109 734.211C495.633 734.984 496.441 735.371 497.535 735.371ZM509.594 732.195C509.594 731.625 509.613 731.156 509.652 730.789C509.691 730.422 509.766 730.105 509.875 729.84C509.992 729.574 510.168 729.309 510.402 729.043C510.637 728.777 510.953 728.465 511.352 728.105C511.906 727.605 512.336 727.141 512.641 726.711C512.953 726.281 513.172 725.863 513.297 725.457C513.43 725.051 513.496 724.637 513.496 724.215C513.496 723.387 513.273 722.75 512.828 722.305C512.391 721.859 511.762 721.637 510.941 721.637C510.23 721.637 509.625 721.832 509.125 722.223C508.633 722.605 508.387 723.172 508.387 723.922H506.184L506.148 723.852C506.133 723.016 506.328 722.285 506.734 721.66C507.148 721.035 507.719 720.551 508.445 720.207C509.172 719.863 510.004 719.691 510.941 719.691C512.48 719.691 513.676 720.086 514.527 720.875C515.379 721.656 515.805 722.75 515.805 724.156C515.805 724.828 515.691 725.441 515.465 725.996C515.246 726.543 514.914 727.094 514.469 727.648C514.023 728.195 513.465 728.809 512.793 729.488C512.52 729.77 512.32 730.027 512.195 730.262C512.07 730.488 511.988 730.75 511.949 731.047C511.918 731.336 511.902 731.719 511.902 732.195H509.594ZM509.57 737V734.562H511.973V737H509.57Z" fill="#151751"/>
<line x1="523.5" y1="710" x2="523.5" y2="745" stroke="#0D0E32"/>
</svg>
